PathFileType  4	(X/Y/Z) C:\Users\antoi\Documents\MyRepositories\mobilecap\ResultsAnalysis
DataRate	CameraRate	NumFrames	NumMarkers	Units	OrigDataRate	OrigDataStartFrame	OrigNumFrames
100.0	100.0	4	51	mm	100.0	101	134
Frame#	Time	r_knee			r_shank_antsup			r_ankle			r_calc			r_5meta			r_toe			L_knee			L_shank_antsup			L_ankle			L_calc			L_5meta			L_toe			r_sh2			r_sh3			r_sh4			L_sh2			L_sh3			r_thigh1			r_thigh2			r_thigh3			r_thigh4			r_thigh5			L_thigh1			L_thigh2			L_thigh3			L_thigh4			r.ASIS			r.PSIS			L.ASIS			L.PSIS			C7			R_Shoulder			L_Shoulder			R_Sternum			L_Sternum			R_humerus			R_elbow_med			R_elbow_lat			R_forearm			R_wrist_radius			R_wrist_ulna			L_humerus			L_elbow_med			L_elbow_lat			L_forearm			L_wrist_radius			L_wrist_ulna			R_HJC			L_HJC			R_HJC_reg			L_HJC_reg			
		X1	Y1	Z1	X2	Y2	Z2	X3	Y3	Z3	X4	Y4	Z4	X5	Y5	Z5	X6	Y6	Z6	X7	Y7	Z7	X8	Y8	Z8	X9	Y9	Z9	X10	Y10	Z10	X11	Y11	Z11	X12	Y12	Z12	X13	Y13	Z13	X14	Y14	Z14	X15	Y15	Z15	X16	Y16	Z16	X17	Y17	Z17	X18	Y18	Z18	X19	Y19	Z19	X20	Y20	Z20	X21	Y21	Z21	X22	Y22	Z22	X23	Y23	Z23	X24	Y24	Z24	X25	Y25	Z25	X26	Y26	Z26	X27	Y27	Z27	X28	Y28	Z28	X29	Y29	Z29	X30	Y30	Z30	X31	Y31	Z31	X32	Y32	Z32	X33	Y33	Z33	X34	Y34	Z34	X35	Y35	Z35	X36	Y36	Z36	X37	Y37	Z37	X38	Y38	Z38	X39	Y39	Z39	X40	Y40	Z40	X41	Y41	Z41	X42	Y42	Z42	X43	Y43	Z43	X44	Y44	Z44	X45	Y45	Z45	X46	Y46	Z46	X47	Y47	Z47	X48	Y48	Z48	X49	Y49	Z49	X50	Y50	Z50	X51	Y51	Z51	

101	1.00000000	1253.80432	518.44135	-45.51401	1304.83461	466.20261	-65.59936	1326.64834	119.53955	-58.96590	1266.59933	69.27708	-87.49942	1447.07070	85.75639	-44.73167	1478.08109	127.75260	-103.07805	987.11858	494.92400	-298.27920	1000.67797	393.72631	-289.95465	871.32090	106.82434	-257.18943	787.76066	73.94101	-231.61676	975.52381	40.00867	-264.22965	1000.71490	61.03077	-197.88156	1311.96969	352.55557	-38.70168	1229.92068	460.41307	-28.78944	1238.50727	347.74749	-25.42358	917.98584	421.04626	-313.77405	890.08609	301.94965	-311.28481	1191.91592	831.20047	-16.37806	1231.11068	724.15015	-26.57309	1190.20637	684.93365	8.99429	1091.59767	791.38287	14.65767	1132.58141	682.44348	2.19669	1071.82255	746.36381	-360.43836	1052.79695	615.63846	-324.40515	962.49812	767.54644	-328.98997	946.78254	629.72873	-305.08431	1158.57820	975.54219	-59.32039	965.76906	1003.52372	-121.68991	1152.09328	946.78891	-307.08077	952.77587	1005.72962	-222.01542	953.08116	1412.81304	-224.26402	1048.78147	1390.92491	-41.09136	1041.57979	1376.74914	-396.41214	1093.42109	1387.56857	-196.12375	1100.41782	1386.72003	-239.81546	1066.01191	1266.41907	37.27774	1018.75128	1049.01486	32.42005	1042.97656	1075.43225	94.22531	1139.07368	969.76951	106.15573	1200.02195	848.79734	114.83667	1181.81702	841.28647	145.17609	1085.56422	1267.41702	-454.00302	1072.26643	1026.31798	-419.98949	1116.39506	1056.53408	-479.68639	1199.54095	982.59365	-436.12295	1277.33996	846.13803	-412.45182	1278.18533	848.05563	-446.99062	1083.94403	892.46900	-69.08913	1070.32725	877.12722	-274.53445	1097.52879	882.53107	-87.03777	1076.38239	886.12100	-250.30819	
102	1.01000000	1262.61861	515.34262	-46.19544	1316.19084	465.66100	-67.05288	1353.10732	119.81695	-62.53948	1295.17535	66.46144	-90.90227	1475.26838	91.34341	-49.84404	1503.57244	135.26834	-108.06685	992.18777	494.40536	-298.45008	1004.73200	392.98331	-290.34225	871.85148	107.49851	-256.98765	788.27636	75.14568	-231.23540	975.62835	39.86390	-264.28237	1000.99174	60.68317	-197.93704	1328.14202	352.20301	-40.85730	1241.59931	456.58777	-29.92303	1254.81824	344.25899	-27.37406	922.23788	421.32106	-313.60633	892.69028	302.60351	-311.03520	1202.87383	828.13891	-16.09399	1240.83846	720.51733	-26.55196	1199.50560	681.82547	9.14703	1102.21099	789.54477	14.78039	1141.99906	680.07075	2.12182	1079.42393	744.87819	-361.10861	1058.92690	614.29481	-325.10575	970.79490	767.52788	-327.90025	953.48407	629.77580	-304.43724	1171.31598	973.53666	-59.86239	977.85766	1001.80423	-120.23682	1162.01471	944.68828	-307.63675	963.75041	1003.90652	-220.43536	964.68660	1411.10414	-223.86191	1061.44976	1389.13600	-41.06844	1052.90243	1374.71469	-396.47166	1105.54699	1385.42501	-196.35222	1112.34902	1384.54765	-240.17943	1077.85392	1264.64893	37.45337	1028.68652	1047.63461	32.62212	1052.32219	1074.07764	94.68700	1146.58612	967.27019	109.19161	1205.60201	845.26622	119.72457	1186.48484	838.16683	149.44900	1097.37632	1265.41618	-453.83891	1086.68217	1024.32317	-418.83797	1130.43254	1054.87462	-478.74021	1214.72549	982.20908	-435.04616	1293.97473	846.72734	-410.82229	1294.68739	848.43153	-445.37712	1096.42405	890.57812	-68.85161	1080.54946	875.14408	-274.12531	1109.78833	880.67568	-86.80770	1086.82313	884.09786	-249.91235	
103	1.02000000	1271.78449	512.45700	-46.88095	1327.43939	464.87700	-68.60300	1376.47777	120.09925	-66.07262	1320.35390	64.22661	-94.15846	1499.96157	96.15214	-54.95695	1525.78592	141.65486	-113.06224	997.93984	493.80826	-298.48688	1009.36097	392.13455	-290.61086	872.54610	108.35905	-256.79914	788.91757	76.63418	-230.84586	975.79105	39.72255	-264.31745	1001.34904	60.31647	-197.98284	1343.28989	351.67802	-43.05697	1253.25733	453.16630	-31.09063	1270.20000	341.21836	-29.26705	927.16169	421.63097	-313.32080	895.82092	303.33151	-310.71851	1213.86166	825.23357	-15.78658	1250.85530	717.19249	-26.38419	1209.09872	678.92782	9.36095	1112.90151	787.70983	14.88432	1151.78131	677.75736	1.96506	1087.41220	743.40009	-361.69147	1065.58948	612.94814	-325.68239	979.45708	767.33127	-326.84354	960.76378	629.66800	-303.71920	1184.13526	971.40918	-60.47260	990.01258	1000.11605	-118.80650	1172.07781	942.58565	-308.30277	974.84285	1002.09493	-218.87571	976.41843	1409.35432	-223.35504	1074.18304	1387.32042	-40.93357	1064.31250	1372.71408	-396.43065	1117.70658	1383.30620	-196.47876	1124.33612	1382.40849	-240.40892	1089.83344	1262.83184	37.68889	1039.00191	1046.17669	32.77193	1061.98420	1072.66132	95.10559	1154.37795	964.80676	112.31016	1211.33034	841.78835	124.74081	1191.32233	835.11855	153.77484	1109.30414	1263.43686	-453.58301	1101.01346	1022.36985	-417.61391	1144.38478	1053.24580	-477.71116	1229.80222	981.77921	-433.89822	1310.17529	847.13307	-409.14175	1310.83135	848.66108	-443.70505	1108.96776	888.60757	-68.71894	1090.83747	873.18159	-273.80452	1122.04254	878.82168	-86.65706	1097.33651	882.04439	-249.62633	
104	1.03000000	1281.48266	509.85723	-47.68742	1338.64107	463.80650	-70.28954	1396.48354	120.06833	-69.45409	1341.74522	62.30093	-97.08790	1520.94417	99.68213	-59.96431	1544.56977	146.35426	-118.02777	1004.37935	493.15486	-298.40328	1014.55992	391.20004	-290.78050	873.43943	109.43974	-256.64183	789.70606	78.46174	-230.46638	976.01209	39.58416	-264.33034	1001.83421	59.95315	-198.03502	1357.35707	350.85595	-45.29072	1264.89710	450.18361	-32.32843	1284.54819	338.58254	-31.07354	932.74889	422.00652	-312.91807	899.48843	304.17065	-310.32904	1225.06899	822.61466	-15.54438	1261.34394	714.30687	-26.22030	1219.21814	676.33989	9.47158	1123.84074	785.93174	14.92787	1162.05072	675.60036	1.68915	1095.80486	741.95944	-362.16524	1072.79139	611.62600	-326.13200	988.51065	766.98730	-325.83091	968.63659	629.44593	-302.91789	1197.01445	969.22494	-61.14112	1002.25006	998.50778	-117.41796	1182.30817	940.51145	-309.05180	986.09143	1000.35022	-217.35087	988.27819	1407.61852	-222.74750	1086.96400	1385.51629	-40.68365	1075.82622	1370.78731	-396.27859	1129.90090	1381.26578	-196.48722	1136.38048	1380.35700	-240.49553	1101.90919	1261.00756	37.99701	1049.70152	1044.66377	32.87918	1071.98285	1071.21307	95.48834	1162.46291	962.40698	115.49180	1217.18872	838.40342	129.83160	1196.34934	832.17557	158.11981	1121.34536	1261.53299	-453.21516	1115.23969	1020.50071	-416.33781	1158.23203	1051.68556	-476.60726	1244.69435	981.30919	-432.67036	1325.94419	847.38572	-407.41397	1326.59874	848.76575	-441.97599	1121.56707	886.61867	-68.67367	1101.21778	871.27812	-273.55705	1134.28630	877.00850	-86.59030	1107.95138	880.01099	-249.44940	
